[2026-03-15 12:36:56] [INFO] Jarvis Desktop launcher started.
[2026-03-15 12:36:56] [INFO] Runtime log path: C:\Jarvis\logs\runtime_2026-03-15_12-36-56.txt
[2026-03-15 12:36:56] [INFO] Launcher executable: C:\Users\anden\AppData\Local\Python\pythoncore-3.14-64\pythonw.exe
[2026-03-15 12:36:56] [INFO] Root directory: C:\Jarvis
[2026-03-15 12:36:56] [INFO] Target script: C:\Jarvis\jarvis_desktop_test.py
[2026-03-15 12:36:56] [INFO] Diagnostics script: C:\Jarvis\desktop\jarvis_diagnostics.pyw
[2026-03-15 12:36:56] [INFO] Recovery attempts allowed: 3
[2026-03-15 12:36:56] [INFO] Voice hook ready: C:\Jarvis\jarvis_voice.py
[2026-03-15 12:36:56] [INFO] Starting desktop renderer process. attempt=1
[2026-03-15 12:36:56] [INFO] Child executable: C:\Users\anden\AppData\Local\Python\pythoncore-3.14-64\pythonw.exe
[2026-03-15 12:36:56] [STDOUT] Jarvis Desktop Concept 1 - Version 1.02
[2026-03-15 12:36:56] [STDOUT] Hotkey: Ctrl + Alt + End
[2026-03-15 12:36:56] [STDERR] Traceback (most recent call last):
[2026-03-15 12:36:56] [STDERR]   File "C:\Jarvis\jarvis_desktop_test.py", line 44, in <module>
[2026-03-15 12:36:56] [STDERR]     raise SystemExit(main())
[2026-03-15 12:36:56] [STDERR]                      ~~~~^^
[2026-03-15 12:36:56] [STDERR]   File "C:\Jarvis\jarvis_desktop_test.py", line 36, in main
[2026-03-15 12:36:56] [STDERR]     raise RuntimeError("Jarvis test crash triggered intentionally")
[2026-03-15 12:36:56] [STDERR] RuntimeError: Jarvis test crash triggered intentionally
[2026-03-15 12:36:56] [INFO] Desktop renderer exited. exit_code=1
[2026-03-15 12:36:56] [WARN] Recovery attempt 1/3
[2026-03-15 12:36:57] [INFO] Starting desktop renderer process. attempt=2
[2026-03-15 12:36:57] [INFO] Child executable: C:\Users\anden\AppData\Local\Python\pythoncore-3.14-64\pythonw.exe
[2026-03-15 12:36:58] [STDOUT] Jarvis Desktop Concept 1 - Version 1.02
[2026-03-15 12:36:58] [STDOUT] Hotkey: Ctrl + Alt + End
[2026-03-15 12:36:58] [STDERR] Traceback (most recent call last):
[2026-03-15 12:36:58] [STDERR]   File "C:\Jarvis\jarvis_desktop_test.py", line 44, in <module>
[2026-03-15 12:36:58] [STDERR]     raise SystemExit(main())
[2026-03-15 12:36:58] [STDERR]                      ~~~~^^
[2026-03-15 12:36:58] [STDERR]   File "C:\Jarvis\jarvis_desktop_test.py", line 36, in main
[2026-03-15 12:36:58] [STDERR]     raise RuntimeError("Jarvis test crash triggered intentionally")
[2026-03-15 12:36:58] [STDERR] RuntimeError: Jarvis test crash triggered intentionally
[2026-03-15 12:36:58] [INFO] Desktop renderer exited. exit_code=1
[2026-03-15 12:36:58] [WARN] Recovery attempt 2/3
[2026-03-15 12:36:59] [INFO] Starting desktop renderer process. attempt=3
[2026-03-15 12:36:59] [INFO] Child executable: C:\Users\anden\AppData\Local\Python\pythoncore-3.14-64\pythonw.exe
[2026-03-15 12:36:59] [STDOUT] Jarvis Desktop Concept 1 - Version 1.02
[2026-03-15 12:36:59] [STDOUT] Hotkey: Ctrl + Alt + End
[2026-03-15 12:36:59] [STDERR] Traceback (most recent call last):
[2026-03-15 12:36:59] [STDERR]   File "C:\Jarvis\jarvis_desktop_test.py", line 44, in <module>
[2026-03-15 12:36:59] [STDERR]     raise SystemExit(main())
[2026-03-15 12:36:59] [STDERR]                      ~~~~^^
[2026-03-15 12:36:59] [STDERR]   File "C:\Jarvis\jarvis_desktop_test.py", line 36, in main
[2026-03-15 12:36:59] [STDERR]     raise RuntimeError("Jarvis test crash triggered intentionally")
[2026-03-15 12:36:59] [STDERR] RuntimeError: Jarvis test crash triggered intentionally
[2026-03-15 12:36:59] [INFO] Desktop renderer exited. exit_code=1
[2026-03-15 12:36:59] [ERROR] Crash log written: C:\Jarvis\logs\crash\crash_2026-03-15_12-36-59.txt
[2026-03-15 12:36:59] [INFO] Trying voice line 'Uhm..... Sir, I seem to be malfunctioning.' using voice --text --mode
[2026-03-15 12:37:07] [VOICE_STDERR] Input #0, wav, from 'C:/Users/anden/AppData/Local/Temp/tmpo70yjpkr.wav':
[2026-03-15 12:37:07] [VOICE_STDERR]   Metadata:
[2026-03-15 12:37:07] [VOICE_STDERR]     encoder         : Lavf62.13.100
[2026-03-15 12:37:07] [VOICE_STDERR]   Duration: 00:00:06.58, bitrate: 384 kb/s
[2026-03-15 12:37:07] [VOICE_STDERR]   Stream #0:0: Audio: pcm_s16le ([1][0][0][0] / 0x0001), 24000 Hz, 1 channels, s16, 384 kb/s
[2026-03-15 12:37:07] [INFO] Voice line completed: Uhm..... Sir, I seem to be malfunctioning.
[2026-03-15 12:37:07] [INFO] Failure voice step 1/3 success=True line=Uhm..... Sir, I seem to be malfunctioning.
[2026-03-15 12:37:08] [INFO] Trying voice line 'Attempting restart.' using voice --text --mode
[2026-03-15 12:37:13] [VOICE_STDERR] Input #0, wav, from 'C:/Users/anden/AppData/Local/Temp/tmp2sa4teqo.wav':
[2026-03-15 12:37:13] [VOICE_STDERR]   Metadata:
[2026-03-15 12:37:13] [VOICE_STDERR]     encoder         : Lavf62.13.100
[2026-03-15 12:37:13] [VOICE_STDERR]   Duration: 00:00:03.37, bitrate: 384 kb/s
[2026-03-15 12:37:13] [VOICE_STDERR]   Stream #0:0: Audio: pcm_s16le ([1][0][0][0] / 0x0001), 24000 Hz, 1 channels, s16, 384 kb/s
[2026-03-15 12:37:13] [INFO] Voice line completed: Attempting restart.
[2026-03-15 12:37:13] [INFO] Failure voice step 2/3 success=True line=Attempting restart.
[2026-03-15 12:37:14] [INFO] Trying voice line 'Restart failed.' using voice --text --mode
[2026-03-15 12:37:19] [VOICE_STDERR] Input #0, wav, from 'C:/Users/anden/AppData/Local/Temp/tmp_fv20laq.wav':
[2026-03-15 12:37:19] [VOICE_STDERR]   Metadata:
[2026-03-15 12:37:19] [VOICE_STDERR]     encoder         : Lavf62.13.100
[2026-03-15 12:37:19] [VOICE_STDERR]   Duration: 00:00:03.28, bitrate: 384 kb/s
[2026-03-15 12:37:19] [VOICE_STDERR]   Stream #0:0: Audio: pcm_s16le ([1][0][0][0] / 0x0001), 24000 Hz, 1 channels, s16, 384 kb/s
[2026-03-15 12:37:19] [INFO] Voice line completed: Restart failed.
[2026-03-15 12:37:19] [INFO] Failure voice step 3/3 success=True line=Restart failed.
[2026-03-15 12:37:19] [INFO] Diagnostics process launched.
